<mxfile host="app.diagrams.net" modified="2022-03-03T06:46:28.357Z" agent="5.0 (Windows NT 10.0; Win64; x64) AppleWebKit/537.36 (KHTML, like Gecko) Chrome/98.0.4758.102 Safari/537.36 Edg/98.0.1108.62" etag="7C3tqC584f345zbmNOLK" version="16.6.4" type="github">
  <diagram id="XhQbzGCCGKh9x0HI-lEJ" name="Page-1">
    <mxGraphModel dx="677" dy="363" grid="1" gridSize="10" guides="1" tooltips="1" connect="1" arrows="1" fold="1" page="1" pageScale="1" pageWidth="827" pageHeight="1169" math="0" shadow="0">
      <root>
        <mxCell id="0" />
        <mxCell id="1" parent="0" />
        <mxCell id="x3hFT0_yMO1LYutWbex_-20" style="edgeStyle=orthogonalEdgeStyle;rounded=0;orthogonalLoop=1;jettySize=auto;html=1;exitX=1;exitY=0.5;exitDx=0;exitDy=0;" edge="1" parent="1" source="x3hFT0_yMO1LYutWbex_-1">
          <mxGeometry relative="1" as="geometry">
            <mxPoint x="240" y="310" as="targetPoint" />
          </mxGeometry>
        </mxCell>
        <mxCell id="x3hFT0_yMO1LYutWbex_-1" value="handler" style="rounded=1;whiteSpace=wrap;html=1;fillColor=#f8cecc;strokeColor=#b85450;horizontal=1;" vertex="1" parent="1">
          <mxGeometry x="120" y="190" width="70" height="240" as="geometry" />
        </mxCell>
        <mxCell id="x3hFT0_yMO1LYutWbex_-17" style="edgeStyle=orthogonalEdgeStyle;rounded=0;orthogonalLoop=1;jettySize=auto;html=1;exitX=0.25;exitY=0;exitDx=0;exitDy=0;entryX=0.5;entryY=1;entryDx=0;entryDy=0;" edge="1" parent="1" source="x3hFT0_yMO1LYutWbex_-2" target="x3hFT0_yMO1LYutWbex_-4">
          <mxGeometry relative="1" as="geometry" />
        </mxCell>
        <mxCell id="x3hFT0_yMO1LYutWbex_-19" style="edgeStyle=orthogonalEdgeStyle;rounded=0;orthogonalLoop=1;jettySize=auto;html=1;exitX=0;exitY=0.5;exitDx=0;exitDy=0;entryX=1;entryY=0.833;entryDx=0;entryDy=0;entryPerimeter=0;" edge="1" parent="1" source="x3hFT0_yMO1LYutWbex_-2" target="x3hFT0_yMO1LYutWbex_-1">
          <mxGeometry relative="1" as="geometry" />
        </mxCell>
        <mxCell id="x3hFT0_yMO1LYutWbex_-24" style="edgeStyle=orthogonalEdgeStyle;rounded=0;orthogonalLoop=1;jettySize=auto;html=1;exitX=0.75;exitY=0;exitDx=0;exitDy=0;" edge="1" parent="1" source="x3hFT0_yMO1LYutWbex_-2">
          <mxGeometry relative="1" as="geometry">
            <mxPoint x="397.2857142857142" y="260" as="targetPoint" />
          </mxGeometry>
        </mxCell>
        <mxCell id="x3hFT0_yMO1LYutWbex_-2" value="support" style="rounded=1;whiteSpace=wrap;html=1;fillColor=#f8cecc;strokeColor=#b85450;" vertex="1" parent="1">
          <mxGeometry x="240" y="360" width="210" height="60" as="geometry" />
        </mxCell>
        <mxCell id="x3hFT0_yMO1LYutWbex_-14" style="edgeStyle=orthogonalEdgeStyle;rounded=0;orthogonalLoop=1;jettySize=auto;html=1;exitX=0.75;exitY=0;exitDx=0;exitDy=0;entryX=0.516;entryY=1;entryDx=0;entryDy=0;entryPerimeter=0;" edge="1" parent="1" source="x3hFT0_yMO1LYutWbex_-3" target="x3hFT0_yMO1LYutWbex_-2">
          <mxGeometry relative="1" as="geometry">
            <Array as="points">
              <mxPoint x="348" y="460" />
            </Array>
          </mxGeometry>
        </mxCell>
        <mxCell id="x3hFT0_yMO1LYutWbex_-3" value="common" style="rounded=1;whiteSpace=wrap;html=1;fillColor=#fff2cc;strokeColor=#d6b656;" vertex="1" parent="1">
          <mxGeometry x="120" y="460" width="330" height="60" as="geometry" />
        </mxCell>
        <mxCell id="x3hFT0_yMO1LYutWbex_-4" value="&lt;div&gt;&lt;div class=&quot;document&quot;&gt;&lt;div class=&quot;section&quot;&gt;&lt;p class=&quot;paragraph text-align-type-left pap-line-1.3 pap-line-rule-auto pap-spacing-before-3pt pap-spacing-after-3pt pap-left-indent-0pt pap-hanging-indent-16.8pt&quot; style=&quot;text-align: left ; line-height: 130% ; margin-top: 4px ; margin-bottom: 4px&quot;&gt;&lt;span style=&quot;font-size: 11pt ; font-family: &amp;#34;helvetica neue&amp;#34; , &amp;#34;helvetica&amp;#34; , &amp;#34;pingfang sc&amp;#34; , &amp;#34;microsoft yahei&amp;#34; , &amp;#34;source han sans sc&amp;#34; , &amp;#34;noto sans cjk sc&amp;#34; , &amp;#34;wenquanyi micro hei&amp;#34; , sans-serif ; color: rgb(51 , 51 , 51) ; letter-spacing: 0pt ; vertical-align: baseline&quot;&gt;web-api&lt;/span&gt;&lt;/p&gt;&lt;/div&gt;&lt;/div&gt;&lt;/div&gt;" style="rounded=1;whiteSpace=wrap;html=1;fillColor=#d5e8d4;strokeColor=#82b366;" vertex="1" parent="1">
          <mxGeometry x="240" y="270" width="140" height="60" as="geometry" />
        </mxCell>
        <mxCell id="x3hFT0_yMO1LYutWbex_-5" value="&lt;div&gt;&lt;div class=&quot;document&quot;&gt;&lt;div class=&quot;section&quot;&gt;&lt;p class=&quot;paragraph text-align-type-left pap-line-1.3 pap-line-rule-auto pap-spacing-before-3pt pap-spacing-after-3pt pap-left-indent-0pt pap-hanging-indent-16.8pt&quot; style=&quot;text-align: left ; line-height: 130% ; margin-top: 4px ; margin-bottom: 4px&quot;&gt;&lt;span style=&quot;font-size: 11pt ; font-family: &amp;#34;helvetica neue&amp;#34; , &amp;#34;helvetica&amp;#34; , &amp;#34;pingfang sc&amp;#34; , &amp;#34;microsoft yahei&amp;#34; , &amp;#34;source han sans sc&amp;#34; , &amp;#34;noto sans cjk sc&amp;#34; , &amp;#34;wenquanyi micro hei&amp;#34; , sans-serif ; color: rgb(51 , 51 , 51) ; letter-spacing: 0pt ; vertical-align: baseline&quot;&gt;admin-api&lt;/span&gt;&lt;/p&gt;&lt;/div&gt;&lt;/div&gt;&lt;/div&gt;" style="rounded=1;whiteSpace=wrap;html=1;fillColor=#d5e8d4;strokeColor=#82b366;gradientColor=none;" vertex="1" parent="1">
          <mxGeometry x="240" y="190" width="210" height="60" as="geometry" />
        </mxCell>
        <mxCell id="x3hFT0_yMO1LYutWbex_-22" value="" style="endArrow=classic;html=1;rounded=0;entryX=0.5;entryY=1;entryDx=0;entryDy=0;" edge="1" parent="1" target="x3hFT0_yMO1LYutWbex_-1">
          <mxGeometry width="50" height="50" relative="1" as="geometry">
            <mxPoint x="155" y="460" as="sourcePoint" />
            <mxPoint x="380" y="330" as="targetPoint" />
          </mxGeometry>
        </mxCell>
        <mxCell id="x3hFT0_yMO1LYutWbex_-23" value="" style="endArrow=classic;html=1;rounded=0;entryX=0;entryY=0.5;entryDx=0;entryDy=0;exitX=1;exitY=0.125;exitDx=0;exitDy=0;exitPerimeter=0;" edge="1" parent="1" source="x3hFT0_yMO1LYutWbex_-1" target="x3hFT0_yMO1LYutWbex_-5">
          <mxGeometry width="50" height="50" relative="1" as="geometry">
            <mxPoint x="230" y="360" as="sourcePoint" />
            <mxPoint x="280" y="310" as="targetPoint" />
          </mxGeometry>
        </mxCell>
      </root>
    </mxGraphModel>
  </diagram>
</mxfile>
